<svg width="14" height="14" viewBox="0 0 14 14" fill="none" xmlns="http://www.w3.org/2000/svg">
<path d="M12.5436 8.53755C11.562 8.81283 10.5247 8.82185 9.53842 8.56369C8.55211 8.30553 7.65229 7.78949 6.93137 7.06857C6.21045 6.34765 5.69442 5.44783 5.43626 4.46152C5.1781 3.47522 5.18712 2.43797 5.46239 1.4563C4.49456 1.72568 3.61419 2.24394 2.90898 2.95944C2.20377 3.67495 1.69833 4.56274 1.44301 5.53438C1.18769 6.50602 1.19139 7.52759 1.45375 8.49736C1.71611 9.46712 2.22797 10.3512 2.93835 11.0616C3.64872 11.772 4.53282 12.2838 5.50259 12.5462C6.47235 12.8086 7.49393 12.8123 8.46556 12.5569C9.4372 12.3016 10.325 11.7962 11.0405 11.091C11.756 10.3858 12.2743 9.50538 12.5436 8.53755Z" stroke="black" stroke-linecap="round" stroke-linejoin="round"/>
</svg>
